M48
;Layer_Color=9474304
;FILE_FORMAT=2:4
INCH,TZ
;TYPE=PLATED
T4F00S00C0.0394
%
G90
G05
T04
G00X2559Y906
M15
G01X1772
M16
G00X3346Y2264
M15
G01Y3248
M16
G00X984Y2362
M15
G01Y3150
M16
G00X83268Y11024
M15
G01Y10236
M16
G00X81693Y12480
M15
G01X82480
M16
G00X80906Y11122
M15
G01Y10138
M16
G00X2559Y14291
M15
G01X1772
M16
G00X3346Y15650
M15
G01Y16634
M16
G00X984Y15748
M15
G01Y16535
M16
G00X80906Y24508
M15
G01Y23524
M16
G00X83268Y24409
M15
G01Y23622
M16
G00X81693Y25866
M15
G01X82480
M16
M17
M30
