M48
;Layer_Color=9474304
;FILE_FORMAT=2:4
INCH,TZ
;TYPE=PLATED
T1F00S00C0.0160
T2F00S00C0.0360
T3F00S00C0.0394
T5F00S00C0.0512
T6F00S00C0.1220
T7F00S00C0.1575
%
T01
X12313Y1575
X12303Y2382
X17717Y886
X19291Y1181
X20768Y1575
X21949Y1772
X23819Y1181
X31299
X47835Y2264
X56102Y2657
X56988Y2756
X58512Y2264
X64468
X67028Y3150
X67126Y3740
X67028Y5413
X67126Y6693
X66437Y7579
X66535Y12500
X67028Y16535
X67126Y17126
X70079Y18209
X71939Y11811
X71949Y11004
X70866Y10256
X71949Y6102
X71841Y5512
X72343
X70079Y4823
X63484Y3740
X64665Y7382
Y8268
X63484Y9646
Y11811
X62303Y11614
X60433Y12205
X64961
X64468Y15650
X63484Y17126
X58512Y15650
X56988Y16142
X56102Y16043
X54331Y16535
X56201Y18307
X52953Y12205
Y9843
X55315Y7579
X56102Y6693
X56988Y6496
Y8268
X59252Y7874
X59744Y6693
X56201Y4921
X54331Y3150
X47835Y15650
X36417Y11122
X29921Y10236
X28150Y10728
X27264Y10630
X25740Y11122
X28051Y8465
X28150Y6693
X27264Y6890
Y5118
X28937Y5807
X25000Y5512
X24508Y6693
X19587Y6004
Y5118
X20768Y3740
Y9646
X19783Y11122
X19291Y14567
X20768Y14961
X21949Y15157
X23819Y14567
X20768Y17126
X31299Y16929
Y14567
Y3543
X17815Y5807
X17126Y6693
X17224Y7972
X17126Y9646
X17224Y10236
X17717Y14272
X12313Y14961
X12303Y15768
X13386Y16516
X14173Y8563
X12411Y7874
X11909
X12303Y7283
X13386Y3130
X12303Y20669
X12411Y21260
X11909
X14173Y21949
X17224Y21358
X17126Y20079
X17815Y19193
X17126Y23031
X17224Y23622
X19783Y24508
X20768Y23031
X19587Y19390
Y18504
X25000Y18898
X24508Y20079
X27264Y20276
X28150Y20079
X28937Y19193
X27264Y18504
X28051Y21850
X28150Y24114
X27264Y24016
X25740Y24508
X29921Y23622
X36417Y24508
X52953Y25591
Y23228
X55315Y20965
X56102Y20079
X56988Y19882
Y21654
X59252Y21260
X59744Y20079
X64665Y20768
Y21654
X63484Y23031
Y25197
X62303Y25000
X60433Y25591
X64961
X66535Y25886
X66437Y20965
X67126Y20079
X67028Y18799
X71841Y18898
X72343
X71949Y19488
Y24390
X71939Y25197
X70866Y23642
T02
X74902Y8675
Y10025
X9350Y4710
Y3360
Y16746
Y18096
X74902Y22061
Y23411
T03
X54512Y1280
X55512
X56512
X57512
X58512
Y14665
X57512
X56512
X55512
X54512
X29740Y12106
X28740
X27740
X26740
X25740
Y25492
X26740
X27740
X28740
X29740
T05
X74272Y1181
X79075
X82480Y1673
Y3642
Y5610
Y15059
Y17028
X79075Y14567
X74272
X73484Y16929
X74272Y5906
X73484Y3543
X79075Y5906
X9980Y7480
X10768Y9843
X9980Y12205
X5177
Y7480
X1772Y7776
Y9744
Y11713
Y21161
Y23130
Y25098
X5177Y25591
Y20866
X9980
X10768Y23228
X9980Y25591
X74272Y19291
X79075
X82480Y18996
T06
X9843Y1181
X51968Y1181
X74409Y12205
X51968Y14567
X32283Y12205
X9843Y14567
X32283Y25591
X74409Y25591
T07
X1969Y-1378
X82283
M30
